<svg width="240" height="137"><defs id="SvgjsDefs1180"></defs><g id="SvgjsG1181" featurekey="root" fill="#f7ed29"></g><g id="SvgjsG1182" featurekey="container1" fill="#062743" transform="matrix(1,0,0,1,0,5)"><rect xmlns="http://www.w3.org/2000/svg" width="240" height="117"></rect></g><g id="SvgjsG1183" featurekey="text1" fill="#f7ed29" transform="matrix(3.03790129698024,0,0,3.03790129698024,17.683812333782573,3.6409850384305464)"><path d="M12.474 17.9663 c0.20339 0 0.28847 0.10203 0.28847 0.28847 l0 3.5085 c0 0.084746 -0.050847 0.16949 -0.11864 0.23712 c-1.2542 1.3222 -2.9661 2.1186 -5 2.1186 c-3.7627 0 -6.8814 -3.0168 -6.8814 -6.8642 s3.1186 -6.9322 6.8814 -6.9322 c2 0 3.7625 0.79661 5.0337 2.1356 c0.15254 0.15238 0.15254 0.30492 0.016949 0.40661 l-1.0847 0.88119 c-0.13559 0.11881 -0.25424 0.11881 -0.38983 -0.016784 c-0.72881 -0.76271 -1.9831 -1.5593 -3.5085 -1.5593 c-3.0508 0 -5.0339 2.5424 -5.0339 5.0847 c0 2.5593 1.9831 5.0169 5.0339 5.0169 c1.322 0 2.4068 -0.57627 3.1525 -1.2203 l0 -1.2542 l-3.1017 0 c-0.18644 0 -0.28831 -0.084746 -0.28831 -0.27119 l0 -1.2544 c0 -0.20339 0.084746 -0.30508 0.27119 -0.30508 l4.7288 0 z M15.779471186440677 12.492 c-0.55915 0 -1.0168 -0.44068 -1.0168 -1.0169 c0 -0.55932 0.45763 -1.0169 1.0168 -1.0169 c0.55932 0 1.0169 0.45763 1.0169 1.0169 c0 0.57627 -0.45763 1.0169 -1.0169 1.0169 z M16.44047118644068 15.6102 l-1.3051 0 c-0.16949 0 -0.27119 0.11881 -0.27119 0.27119 l0 7.4407 c0 0.38983 0.23729 0.6778 0.64407 0.6778 l0.94915 0 c0.15254 0 0.25424 -0.10153 0.25424 -0.28797 l0 -7.8305 c0 -0.15238 -0.11864 -0.27119 -0.27119 -0.27119 z M25.660850847457628 10.932 c0.11864 0.067631 0.18627 0.22017 0.11848 0.35576 l-0.47458 1.0508 c-0.067797 0.15254 -0.20339 0.18644 -0.37288 0.13559 c-0.23729 -0.11864 -0.72881 -0.37288 -1.3729 -0.37288 s-1.7119 0.35593 -1.7119 1.661 l0 1.8475 l2.0169 0 c0.13559 0 0.22034 0.084746 0.22034 0.22034 l0 1.2881 c0 0.11864 -0.084746 0.20339 -0.22034 0.20339 l-2.0169 0 l0 6.3898 c0 0.16949 -0.10169 0.28814 -0.27119 0.28814 l-0.9322 0 c-0.42373 0 -0.64407 -0.28797 -0.64407 -0.69475 l0 -5.9831 l-1.2034 0 c-0.13559 0 -0.22034 -0.067797 -0.22034 -0.18644 l0 -1.0339 c0 -0.32203 0.20339 -0.49153 0.50847 -0.49153 l0.91525 0 l0 -1.8475 c0 -2.3051 1.5254 -3.4069 3.5086 -3.4069 c0.84746 0 1.5932 0.23746 2.1525 0.57644 z M31.338789830508475 23.4578 c0.050847 0.13559 -0.050681 0.22 -0.16933 0.30475 c-0.28814 0.18644 -0.91525 0.32203 -1.5424 0.32203 c-1.8136 0 -2.4746 -0.9322 -2.4746 -3.1186 l0 -3.5763 l-1 0 c-0.15254 0 -0.27119 -0.10169 -0.27119 -0.27119 l0 -0.28814 c0 -0.13559 0.033898 -0.23712 0.13559 -0.33898 c0.98305 -0.79661 1.7627 -1.6269 2.4407 -3.339 c0.050847 -0.11864 0.10169 -0.18644 0.18644 -0.18644 l0.18644 0 c0.13559 0 0.18644 0.067797 0.18644 0.22034 l0 2.4237 l1.7797 0 c0.15254 0 0.28814 0.11881 0.28814 0.28831 l0 1.2203 c0 0.15254 -0.13559 0.27119 -0.28814 0.27119 l-1.4746 0 c-0.13559 0 -0.25424 -0.016949 -0.32203 -0.050847 l0 3.4576 c0 0.98305 0.11864 1.5424 0.94915 1.5424 c0.35593 0 0.59322 -0.050847 0.79661 -0.10169 s0.33898 0.033898 0.37288 0.22051 z M32.847288305084746 22.7798 l0.5761 -0.91508 c0.11864 -0.18661 0.22034 -0.23746 0.38983 -0.15271 c0.016949 0.033898 1.0508 0.64407 2.1864 0.64407 c0.98305 0 1.322 -0.38983 1.322 -0.77966 c0 -0.57627 -0.62712 -0.77949 -1.7627 -1.0676 c-1.6102 -0.42373 -2.678 -1.2542 -2.678 -2.5424 c0 -1.2712 1.0847 -2.4576 3.1186 -2.4576 c1.2373 0 2.0847 0.42373 2.7627 0.81356 c0.16949 0.10169 0.25424 0.25424 0.15254 0.38983 l-0.62712 0.9661 c-0.084746 0.13559 -0.22034 0.18644 -0.37288 0.13559 c-0.44068 -0.22017 -1.1525 -0.54237 -1.9153 -0.54237 c-0.94915 0 -1.2034 0.47458 -1.2034 0.76271 c0 0.49153 0.71186 0.72881 1.5763 0.96593 c1.5086 0.40678 3.0171 1.1356 3.0171 2.6102 c0 1.4237 -1.3558 2.5083 -3.3898 2.5083 c-1.3898 0 -2.6441 -0.6778 -3.0678 -1.0168 c-0.11864 -0.067797 -0.15254 -0.23729 -0.084746 -0.32203 z M48.01694237288136 20.4915 c0.61 0 1.0336 -0.30508 1.0336 -1.0169 c0 -2.0847 -1.6102 -3.9831 -4.0847 -3.9831 c-2.3559 0 -4.2034 1.8644 -4.2034 4.3051 c0 2.5422 1.9322 4.288 4.3051 4.288 c1.5085 0 2.6949 -0.61017 3.4237 -1.5932 c0.10186 -0.13559 0.067963 -0.23729 -0.033568 -0.37288 l-0.32203 -0.42373 c-0.13559 -0.16933 -0.27119 -0.15254 -0.44085 -0.050847 c-0.5422 0.44068 -1.4405 0.81373 -2.4236 0.81373 c-1.3898 0 -2.3729 -0.84746 -2.5593 -1.9661 l5.3051 0 z M42.71174237288135 19.0508 c0.067797 -0.81356 0.83051 -1.8644 2.2203 -1.8644 c1.4068 0 2.1356 1.0678 2.1864 1.8644 l-4.4068 0 z M56.62696610169491 16.0341 c0.18644 0.11864 0.23729 0.22017 0.11848 0.40661 l-0.69475 1.0169 c-0.084746 0.11864 -0.20339 0.15254 -0.35593 0.11864 c-0.35593 -0.16949 -0.66102 -0.32203 -1.2203 -0.32203 s-1.4407 0.23729 -1.9153 1.2881 l0 5.1866 c0 0.15238 -0.10169 0.27102 -0.25424 0.27102 l-1.339 0 c-0.15254 0 -0.25424 -0.11864 -0.25424 -0.27102 l0 -7.8476 c0 -0.15238 0.11864 -0.27119 0.25424 -0.27119 l0.9322 0 c0.40678 0 0.66102 0.42373 0.66102 0.72881 l0 0.11881 c0.59322 -0.54237 1.3051 -0.91525 2.2373 -0.91525 c0.86441 0 1.5085 0.27119 1.8305 0.49153 z M66.28809152542372 15.6102 c0.20339 0 0.30525 0.13543 0.20356 0.32203 l-3.3559 6.8983 c-1.678 3.4914 -3.1525 5.5083 -3.9492 6.288 c-0.15254 0.13559 -0.33898 0.067797 -0.50847 -0.10169 l-0.72881 -0.72881 c-0.18644 -0.16949 -0.15254 -0.33898 0.016949 -0.54237 c1.0339 -1.1695 2.3729 -3.1017 3.2373 -5.0507 l-3.5254 -6.7797 c-0.084746 -0.16949 0 -0.30508 0.18644 -0.30508 l1.4915 0 c0.15238 0 0.23712 0.067797 0.30492 0.18661 l2.4915 5.0846 l2.3729 -5.0678 c0.067797 -0.13559 0.16949 -0.20339 0.32203 -0.20339 l1.4407 0 z"></path></g></svg>